<?xml version="1.0" encoding="utf-8" standalone="no"?>
<!DOCTYPE svg PUBLIC "-//W3C//DTD SVG 1.1//EN"
  "http://www.w3.org/Graphics/SVG/1.1/DTD/svg11.dtd">
<!-- Created with matplotlib (https://matplotlib.org/) -->
<svg height="345.6pt" version="1.1" viewBox="0 0 460.8 345.6" width="460.8pt" xmlns="http://www.w3.org/2000/svg" xmlns:xlink="http://www.w3.org/1999/xlink">
 <defs>
  <style type="text/css">
*{stroke-linecap:butt;stroke-linejoin:round;}
  </style>
 </defs>
 <g id="figure_1">
  <g id="patch_1">
   <path d="M 0 345.6 
L 460.8 345.6 
L 460.8 0 
L 0 0 
z
" style="fill:#ffffff;"/>
  </g>
  <g id="axes_1">
   <g id="patch_2">
    <path d="M 56 80.44 
L 450 80.44 
L 450 26.88 
L 56 26.88 
z
" style="fill:#ffffff;"/>
   </g>
   <g id="matplotlib.axis_1">
    <g id="xtick_1">
     <g id="line2d_1">
      <path clip-path="url(#p6fc9eff3b9)" d="M 73.909091 80.44 
L 73.909091 26.88 
" style="fill:none;stroke:#b0b0b0;stroke-linecap:square;stroke-width:0.8;"/>
     </g>
     <g id="line2d_2">
      <defs>
       <path d="M 0 0 
L 0 3.5 
" id="m78ca9aaafc" style="stroke:#000000;stroke-width:0.8;"/>
      </defs>
      <g>
       <use style="stroke:#000000;stroke-width:0.8;" x="73.909091" xlink:href="#m78ca9aaafc" y="80.44"/>
      </g>
     </g>
     <g id="text_1">
      <!-- 0.0 -->
      <defs>
       <path d="M 31.78125 66.40625 
Q 24.171875 66.40625 20.328125 58.90625 
Q 16.5 51.421875 16.5 36.375 
Q 16.5 21.390625 20.328125 13.890625 
Q 24.171875 6.390625 31.78125 6.390625 
Q 39.453125 6.390625 43.28125 13.890625 
Q 47.125 21.390625 47.125 36.375 
Q 47.125 51.421875 43.28125 58.90625 
Q 39.453125 66.40625 31.78125 66.40625 
z
M 31.78125 74.21875 
Q 44.046875 74.21875 50.515625 64.515625 
Q 56.984375 54.828125 56.984375 36.375 
Q 56.984375 17.96875 50.515625 8.265625 
Q 44.046875 -1.421875 31.78125 -1.421875 
Q 19.53125 -1.421875 13.0625 8.265625 
Q 6.59375 17.96875 6.59375 36.375 
Q 6.59375 54.828125 13.0625 64.515625 
Q 19.53125 74.21875 31.78125 74.21875 
z
" id="DejaVuSans-48"/>
       <path d="M 10.6875 12.40625 
L 21 12.40625 
L 21 0 
L 10.6875 0 
z
" id="DejaVuSans-46"/>
      </defs>
      <g transform="translate(65.957528 95.038437)scale(0.1 -0.1)">
       <use xlink:href="#DejaVuSans-48"/>
       <use x="63.623047" xlink:href="#DejaVuSans-46"/>
       <use x="95.410156" xlink:href="#DejaVuSans-48"/>
      </g>
     </g>
    </g>
    <g id="xtick_2">
     <g id="line2d_3">
      <path clip-path="url(#p6fc9eff3b9)" d="M 133.805716 80.44 
L 133.805716 26.88 
" style="fill:none;stroke:#b0b0b0;stroke-linecap:square;stroke-width:0.8;"/>
     </g>
     <g id="line2d_4">
      <g>
       <use style="stroke:#000000;stroke-width:0.8;" x="133.805716" xlink:href="#m78ca9aaafc" y="80.44"/>
      </g>
     </g>
     <g id="text_2">
      <!-- 0.5 -->
      <defs>
       <path d="M 10.796875 72.90625 
L 49.515625 72.90625 
L 49.515625 64.59375 
L 19.828125 64.59375 
L 19.828125 46.734375 
Q 21.96875 47.46875 24.109375 47.828125 
Q 26.265625 48.1875 28.421875 48.1875 
Q 40.625 48.1875 47.75 41.5 
Q 54.890625 34.8125 54.890625 23.390625 
Q 54.890625 11.625 47.5625 5.09375 
Q 40.234375 -1.421875 26.90625 -1.421875 
Q 22.3125 -1.421875 17.546875 -0.640625 
Q 12.796875 0.140625 7.71875 1.703125 
L 7.71875 11.625 
Q 12.109375 9.234375 16.796875 8.0625 
Q 21.484375 6.890625 26.703125 6.890625 
Q 35.15625 6.890625 40.078125 11.328125 
Q 45.015625 15.765625 45.015625 23.390625 
Q 45.015625 31 40.078125 35.4375 
Q 35.15625 39.890625 26.703125 39.890625 
Q 22.75 39.890625 18.8125 39.015625 
Q 14.890625 38.140625 10.796875 36.28125 
z
" id="DejaVuSans-53"/>
      </defs>
      <g transform="translate(125.854154 95.038437)scale(0.1 -0.1)">
       <use xlink:href="#DejaVuSans-48"/>
       <use x="63.623047" xlink:href="#DejaVuSans-46"/>
       <use x="95.410156" xlink:href="#DejaVuSans-53"/>
      </g>
     </g>
    </g>
    <g id="xtick_3">
     <g id="line2d_5">
      <path clip-path="url(#p6fc9eff3b9)" d="M 193.702341 80.44 
L 193.702341 26.88 
" style="fill:none;stroke:#b0b0b0;stroke-linecap:square;stroke-width:0.8;"/>
     </g>
     <g id="line2d_6">
      <g>
       <use style="stroke:#000000;stroke-width:0.8;" x="193.702341" xlink:href="#m78ca9aaafc" y="80.44"/>
      </g>
     </g>
     <g id="text_3">
      <!-- 1.0 -->
      <defs>
       <path d="M 12.40625 8.296875 
L 28.515625 8.296875 
L 28.515625 63.921875 
L 10.984375 60.40625 
L 10.984375 69.390625 
L 28.421875 72.90625 
L 38.28125 72.90625 
L 38.28125 8.296875 
L 54.390625 8.296875 
L 54.390625 0 
L 12.40625 0 
z
" id="DejaVuSans-49"/>
      </defs>
      <g transform="translate(185.750779 95.038437)scale(0.1 -0.1)">
       <use xlink:href="#DejaVuSans-49"/>
       <use x="63.623047" xlink:href="#DejaVuSans-46"/>
       <use x="95.410156" xlink:href="#DejaVuSans-48"/>
      </g>
     </g>
    </g>
    <g id="xtick_4">
     <g id="line2d_7">
      <path clip-path="url(#p6fc9eff3b9)" d="M 253.598966 80.44 
L 253.598966 26.88 
" style="fill:none;stroke:#b0b0b0;stroke-linecap:square;stroke-width:0.8;"/>
     </g>
     <g id="line2d_8">
      <g>
       <use style="stroke:#000000;stroke-width:0.8;" x="253.598966" xlink:href="#m78ca9aaafc" y="80.44"/>
      </g>
     </g>
     <g id="text_4">
      <!-- 1.5 -->
      <g transform="translate(245.647404 95.038437)scale(0.1 -0.1)">
       <use xlink:href="#DejaVuSans-49"/>
       <use x="63.623047" xlink:href="#DejaVuSans-46"/>
       <use x="95.410156" xlink:href="#DejaVuSans-53"/>
      </g>
     </g>
    </g>
    <g id="xtick_5">
     <g id="line2d_9">
      <path clip-path="url(#p6fc9eff3b9)" d="M 313.495591 80.44 
L 313.495591 26.88 
" style="fill:none;stroke:#b0b0b0;stroke-linecap:square;stroke-width:0.8;"/>
     </g>
     <g id="line2d_10">
      <g>
       <use style="stroke:#000000;stroke-width:0.8;" x="313.495591" xlink:href="#m78ca9aaafc" y="80.44"/>
      </g>
     </g>
     <g id="text_5">
      <!-- 2.0 -->
      <defs>
       <path d="M 19.1875 8.296875 
L 53.609375 8.296875 
L 53.609375 0 
L 7.328125 0 
L 7.328125 8.296875 
Q 12.9375 14.109375 22.625 23.890625 
Q 32.328125 33.6875 34.8125 36.53125 
Q 39.546875 41.84375 41.421875 45.53125 
Q 43.3125 49.21875 43.3125 52.78125 
Q 43.3125 58.59375 39.234375 62.25 
Q 35.15625 65.921875 28.609375 65.921875 
Q 23.96875 65.921875 18.8125 64.3125 
Q 13.671875 62.703125 7.8125 59.421875 
L 7.8125 69.390625 
Q 13.765625 71.78125 18.9375 73 
Q 24.125 74.21875 28.421875 74.21875 
Q 39.75 74.21875 46.484375 68.546875 
Q 53.21875 62.890625 53.21875 53.421875 
Q 53.21875 48.921875 51.53125 44.890625 
Q 49.859375 40.875 45.40625 35.40625 
Q 44.1875 33.984375 37.640625 27.21875 
Q 31.109375 20.453125 19.1875 8.296875 
z
" id="DejaVuSans-50"/>
      </defs>
      <g transform="translate(305.544029 95.038437)scale(0.1 -0.1)">
       <use xlink:href="#DejaVuSans-50"/>
       <use x="63.623047" xlink:href="#DejaVuSans-46"/>
       <use x="95.410156" xlink:href="#DejaVuSans-48"/>
      </g>
     </g>
    </g>
    <g id="xtick_6">
     <g id="line2d_11">
      <path clip-path="url(#p6fc9eff3b9)" d="M 373.392216 80.44 
L 373.392216 26.88 
" style="fill:none;stroke:#b0b0b0;stroke-linecap:square;stroke-width:0.8;"/>
     </g>
     <g id="line2d_12">
      <g>
       <use style="stroke:#000000;stroke-width:0.8;" x="373.392216" xlink:href="#m78ca9aaafc" y="80.44"/>
      </g>
     </g>
     <g id="text_6">
      <!-- 2.5 -->
      <g transform="translate(365.440654 95.038437)scale(0.1 -0.1)">
       <use xlink:href="#DejaVuSans-50"/>
       <use x="63.623047" xlink:href="#DejaVuSans-46"/>
       <use x="95.410156" xlink:href="#DejaVuSans-53"/>
      </g>
     </g>
    </g>
    <g id="xtick_7">
     <g id="line2d_13">
      <path clip-path="url(#p6fc9eff3b9)" d="M 433.288842 80.44 
L 433.288842 26.88 
" style="fill:none;stroke:#b0b0b0;stroke-linecap:square;stroke-width:0.8;"/>
     </g>
     <g id="line2d_14">
      <g>
       <use style="stroke:#000000;stroke-width:0.8;" x="433.288842" xlink:href="#m78ca9aaafc" y="80.44"/>
      </g>
     </g>
     <g id="text_7">
      <!-- 3.0 -->
      <defs>
       <path d="M 40.578125 39.3125 
Q 47.65625 37.796875 51.625 33 
Q 55.609375 28.21875 55.609375 21.1875 
Q 55.609375 10.40625 48.1875 4.484375 
Q 40.765625 -1.421875 27.09375 -1.421875 
Q 22.515625 -1.421875 17.65625 -0.515625 
Q 12.796875 0.390625 7.625 2.203125 
L 7.625 11.71875 
Q 11.71875 9.328125 16.59375 8.109375 
Q 21.484375 6.890625 26.8125 6.890625 
Q 36.078125 6.890625 40.9375 10.546875 
Q 45.796875 14.203125 45.796875 21.1875 
Q 45.796875 27.640625 41.28125 31.265625 
Q 36.765625 34.90625 28.71875 34.90625 
L 20.21875 34.90625 
L 20.21875 43.015625 
L 29.109375 43.015625 
Q 36.375 43.015625 40.234375 45.921875 
Q 44.09375 48.828125 44.09375 54.296875 
Q 44.09375 59.90625 40.109375 62.90625 
Q 36.140625 65.921875 28.71875 65.921875 
Q 24.65625 65.921875 20.015625 65.03125 
Q 15.375 64.15625 9.8125 62.3125 
L 9.8125 71.09375 
Q 15.4375 72.65625 20.34375 73.4375 
Q 25.25 74.21875 29.59375 74.21875 
Q 40.828125 74.21875 47.359375 69.109375 
Q 53.90625 64.015625 53.90625 55.328125 
Q 53.90625 49.265625 50.4375 45.09375 
Q 46.96875 40.921875 40.578125 39.3125 
z
" id="DejaVuSans-51"/>
      </defs>
      <g transform="translate(425.337279 95.038437)scale(0.1 -0.1)">
       <use xlink:href="#DejaVuSans-51"/>
       <use x="63.623047" xlink:href="#DejaVuSans-46"/>
       <use x="95.410156" xlink:href="#DejaVuSans-48"/>
      </g>
     </g>
    </g>
    <g id="text_8">
     <!-- time [us] -->
     <defs>
      <path d="M 18.3125 70.21875 
L 18.3125 54.6875 
L 36.8125 54.6875 
L 36.8125 47.703125 
L 18.3125 47.703125 
L 18.3125 18.015625 
Q 18.3125 11.328125 20.140625 9.421875 
Q 21.96875 7.515625 27.59375 7.515625 
L 36.8125 7.515625 
L 36.8125 0 
L 27.59375 0 
Q 17.1875 0 13.234375 3.875 
Q 9.28125 7.765625 9.28125 18.015625 
L 9.28125 47.703125 
L 2.6875 47.703125 
L 2.6875 54.6875 
L 9.28125 54.6875 
L 9.28125 70.21875 
z
" id="DejaVuSans-116"/>
      <path d="M 9.421875 54.6875 
L 18.40625 54.6875 
L 18.40625 0 
L 9.421875 0 
z
M 9.421875 75.984375 
L 18.40625 75.984375 
L 18.40625 64.59375 
L 9.421875 64.59375 
z
" id="DejaVuSans-105"/>
      <path d="M 52 44.1875 
Q 55.375 50.25 60.0625 53.125 
Q 64.75 56 71.09375 56 
Q 79.640625 56 84.28125 50.015625 
Q 88.921875 44.046875 88.921875 33.015625 
L 88.921875 0 
L 79.890625 0 
L 79.890625 32.71875 
Q 79.890625 40.578125 77.09375 44.375 
Q 74.3125 48.1875 68.609375 48.1875 
Q 61.625 48.1875 57.5625 43.546875 
Q 53.515625 38.921875 53.515625 30.90625 
L 53.515625 0 
L 44.484375 0 
L 44.484375 32.71875 
Q 44.484375 40.625 41.703125 44.40625 
Q 38.921875 48.1875 33.109375 48.1875 
Q 26.21875 48.1875 22.15625 43.53125 
Q 18.109375 38.875 18.109375 30.90625 
L 18.109375 0 
L 9.078125 0 
L 9.078125 54.6875 
L 18.109375 54.6875 
L 18.109375 46.1875 
Q 21.1875 51.21875 25.484375 53.609375 
Q 29.78125 56 35.6875 56 
Q 41.65625 56 45.828125 52.96875 
Q 50 49.953125 52 44.1875 
z
" id="DejaVuSans-109"/>
      <path d="M 56.203125 29.59375 
L 56.203125 25.203125 
L 14.890625 25.203125 
Q 15.484375 15.921875 20.484375 11.0625 
Q 25.484375 6.203125 34.421875 6.203125 
Q 39.59375 6.203125 44.453125 7.46875 
Q 49.3125 8.734375 54.109375 11.28125 
L 54.109375 2.78125 
Q 49.265625 0.734375 44.1875 -0.34375 
Q 39.109375 -1.421875 33.890625 -1.421875 
Q 20.796875 -1.421875 13.15625 6.1875 
Q 5.515625 13.8125 5.515625 26.8125 
Q 5.515625 40.234375 12.765625 48.109375 
Q 20.015625 56 32.328125 56 
Q 43.359375 56 49.78125 48.890625 
Q 56.203125 41.796875 56.203125 29.59375 
z
M 47.21875 32.234375 
Q 47.125 39.59375 43.09375 43.984375 
Q 39.0625 48.390625 32.421875 48.390625 
Q 24.90625 48.390625 20.390625 44.140625 
Q 15.875 39.890625 15.1875 32.171875 
z
" id="DejaVuSans-101"/>
      <path id="DejaVuSans-32"/>
      <path d="M 8.59375 75.984375 
L 29.296875 75.984375 
L 29.296875 69 
L 17.578125 69 
L 17.578125 -6.203125 
L 29.296875 -6.203125 
L 29.296875 -13.1875 
L 8.59375 -13.1875 
z
" id="DejaVuSans-91"/>
      <path d="M 8.5 21.578125 
L 8.5 54.6875 
L 17.484375 54.6875 
L 17.484375 21.921875 
Q 17.484375 14.15625 20.5 10.265625 
Q 23.53125 6.390625 29.59375 6.390625 
Q 36.859375 6.390625 41.078125 11.03125 
Q 45.3125 15.671875 45.3125 23.6875 
L 45.3125 54.6875 
L 54.296875 54.6875 
L 54.296875 0 
L 45.3125 0 
L 45.3125 8.40625 
Q 42.046875 3.421875 37.71875 1 
Q 33.40625 -1.421875 27.6875 -1.421875 
Q 18.265625 -1.421875 13.375 4.4375 
Q 8.5 10.296875 8.5 21.578125 
z
M 31.109375 56 
z
" id="DejaVuSans-117"/>
      <path d="M 44.28125 53.078125 
L 44.28125 44.578125 
Q 40.484375 46.53125 36.375 47.5 
Q 32.28125 48.484375 27.875 48.484375 
Q 21.1875 48.484375 17.84375 46.4375 
Q 14.5 44.390625 14.5 40.28125 
Q 14.5 37.15625 16.890625 35.375 
Q 19.28125 33.59375 26.515625 31.984375 
L 29.59375 31.296875 
Q 39.15625 29.25 43.1875 25.515625 
Q 47.21875 21.78125 47.21875 15.09375 
Q 47.21875 7.46875 41.1875 3.015625 
Q 35.15625 -1.421875 24.609375 -1.421875 
Q 20.21875 -1.421875 15.453125 -0.5625 
Q 10.6875 0.296875 5.421875 2 
L 5.421875 11.28125 
Q 10.40625 8.6875 15.234375 7.390625 
Q 20.0625 6.109375 24.8125 6.109375 
Q 31.15625 6.109375 34.5625 8.28125 
Q 37.984375 10.453125 37.984375 14.40625 
Q 37.984375 18.0625 35.515625 20.015625 
Q 33.0625 21.96875 24.703125 23.78125 
L 21.578125 24.515625 
Q 13.234375 26.265625 9.515625 29.90625 
Q 5.8125 33.546875 5.8125 39.890625 
Q 5.8125 47.609375 11.28125 51.796875 
Q 16.75 56 26.8125 56 
Q 31.78125 56 36.171875 55.265625 
Q 40.578125 54.546875 44.28125 53.078125 
z
" id="DejaVuSans-115"/>
      <path d="M 30.421875 75.984375 
L 30.421875 -13.1875 
L 9.71875 -13.1875 
L 9.71875 -6.203125 
L 21.390625 -6.203125 
L 21.390625 69 
L 9.71875 69 
L 9.71875 75.984375 
z
" id="DejaVuSans-93"/>
     </defs>
     <g transform="translate(230.439844 108.716562)scale(0.1 -0.1)">
      <use xlink:href="#DejaVuSans-116"/>
      <use x="39.208984" xlink:href="#DejaVuSans-105"/>
      <use x="66.992188" xlink:href="#DejaVuSans-109"/>
      <use x="164.404297" xlink:href="#DejaVuSans-101"/>
      <use x="225.927734" xlink:href="#DejaVuSans-32"/>
      <use x="257.714844" xlink:href="#DejaVuSans-91"/>
      <use x="296.728516" xlink:href="#DejaVuSans-117"/>
      <use x="360.107422" xlink:href="#DejaVuSans-115"/>
      <use x="412.207031" xlink:href="#DejaVuSans-93"/>
     </g>
    </g>
   </g>
   <g id="matplotlib.axis_2">
    <g id="ytick_1">
     <g id="line2d_15">
      <path clip-path="url(#p6fc9eff3b9)" d="M 56 79.258326 
L 450 79.258326 
" style="fill:none;stroke:#b0b0b0;stroke-linecap:square;stroke-width:0.8;"/>
     </g>
     <g id="line2d_16">
      <defs>
       <path d="M 0 0 
L -3.5 0 
" id="m437f5d4a5a" style="stroke:#000000;stroke-width:0.8;"/>
      </defs>
      <g>
       <use style="stroke:#000000;stroke-width:0.8;" x="56" xlink:href="#m437f5d4a5a" y="79.258326"/>
      </g>
     </g>
     <g id="text_9">
      <!-- −1 -->
      <defs>
       <path d="M 10.59375 35.5 
L 73.1875 35.5 
L 73.1875 27.203125 
L 10.59375 27.203125 
z
" id="DejaVuSans-8722"/>
      </defs>
      <g transform="translate(34.257813 83.057545)scale(0.1 -0.1)">
       <use xlink:href="#DejaVuSans-8722"/>
       <use x="83.789062" xlink:href="#DejaVuSans-49"/>
      </g>
     </g>
    </g>
    <g id="ytick_2">
     <g id="line2d_17">
      <path clip-path="url(#p6fc9eff3b9)" d="M 56 53.66 
L 450 53.66 
" style="fill:none;stroke:#b0b0b0;stroke-linecap:square;stroke-width:0.8;"/>
     </g>
     <g id="line2d_18">
      <g>
       <use style="stroke:#000000;stroke-width:0.8;" x="56" xlink:href="#m437f5d4a5a" y="53.66"/>
      </g>
     </g>
     <g id="text_10">
      <!-- 0 -->
      <g transform="translate(42.6375 57.459219)scale(0.1 -0.1)">
       <use xlink:href="#DejaVuSans-48"/>
      </g>
     </g>
    </g>
    <g id="ytick_3">
     <g id="line2d_19">
      <path clip-path="url(#p6fc9eff3b9)" d="M 56 28.061674 
L 450 28.061674 
" style="fill:none;stroke:#b0b0b0;stroke-linecap:square;stroke-width:0.8;"/>
     </g>
     <g id="line2d_20">
      <g>
       <use style="stroke:#000000;stroke-width:0.8;" x="56" xlink:href="#m437f5d4a5a" y="28.061674"/>
      </g>
     </g>
     <g id="text_11">
      <!-- 1 -->
      <g transform="translate(42.6375 31.860893)scale(0.1 -0.1)">
       <use xlink:href="#DejaVuSans-49"/>
      </g>
     </g>
    </g>
    <g id="text_12">
     <!-- amplitude -->
     <defs>
      <path d="M 34.28125 27.484375 
Q 23.390625 27.484375 19.1875 25 
Q 14.984375 22.515625 14.984375 16.5 
Q 14.984375 11.71875 18.140625 8.90625 
Q 21.296875 6.109375 26.703125 6.109375 
Q 34.1875 6.109375 38.703125 11.40625 
Q 43.21875 16.703125 43.21875 25.484375 
L 43.21875 27.484375 
z
M 52.203125 31.203125 
L 52.203125 0 
L 43.21875 0 
L 43.21875 8.296875 
Q 40.140625 3.328125 35.546875 0.953125 
Q 30.953125 -1.421875 24.3125 -1.421875 
Q 15.921875 -1.421875 10.953125 3.296875 
Q 6 8.015625 6 15.921875 
Q 6 25.140625 12.171875 29.828125 
Q 18.359375 34.515625 30.609375 34.515625 
L 43.21875 34.515625 
L 43.21875 35.40625 
Q 43.21875 41.609375 39.140625 45 
Q 35.0625 48.390625 27.6875 48.390625 
Q 23 48.390625 18.546875 47.265625 
Q 14.109375 46.140625 10.015625 43.890625 
L 10.015625 52.203125 
Q 14.9375 54.109375 19.578125 55.046875 
Q 24.21875 56 28.609375 56 
Q 40.484375 56 46.34375 49.84375 
Q 52.203125 43.703125 52.203125 31.203125 
z
" id="DejaVuSans-97"/>
      <path d="M 18.109375 8.203125 
L 18.109375 -20.796875 
L 9.078125 -20.796875 
L 9.078125 54.6875 
L 18.109375 54.6875 
L 18.109375 46.390625 
Q 20.953125 51.265625 25.265625 53.625 
Q 29.59375 56 35.59375 56 
Q 45.5625 56 51.78125 48.09375 
Q 58.015625 40.1875 58.015625 27.296875 
Q 58.015625 14.40625 51.78125 6.484375 
Q 45.5625 -1.421875 35.59375 -1.421875 
Q 29.59375 -1.421875 25.265625 0.953125 
Q 20.953125 3.328125 18.109375 8.203125 
z
M 48.6875 27.296875 
Q 48.6875 37.203125 44.609375 42.84375 
Q 40.53125 48.484375 33.40625 48.484375 
Q 26.265625 48.484375 22.1875 42.84375 
Q 18.109375 37.203125 18.109375 27.296875 
Q 18.109375 17.390625 22.1875 11.75 
Q 26.265625 6.109375 33.40625 6.109375 
Q 40.53125 6.109375 44.609375 11.75 
Q 48.6875 17.390625 48.6875 27.296875 
z
" id="DejaVuSans-112"/>
      <path d="M 9.421875 75.984375 
L 18.40625 75.984375 
L 18.40625 0 
L 9.421875 0 
z
" id="DejaVuSans-108"/>
      <path d="M 45.40625 46.390625 
L 45.40625 75.984375 
L 54.390625 75.984375 
L 54.390625 0 
L 45.40625 0 
L 45.40625 8.203125 
Q 42.578125 3.328125 38.25 0.953125 
Q 33.9375 -1.421875 27.875 -1.421875 
Q 17.96875 -1.421875 11.734375 6.484375 
Q 5.515625 14.40625 5.515625 27.296875 
Q 5.515625 40.1875 11.734375 48.09375 
Q 17.96875 56 27.875 56 
Q 33.9375 56 38.25 53.625 
Q 42.578125 51.265625 45.40625 46.390625 
z
M 14.796875 27.296875 
Q 14.796875 17.390625 18.875 11.75 
Q 22.953125 6.109375 30.078125 6.109375 
Q 37.203125 6.109375 41.296875 11.75 
Q 45.40625 17.390625 45.40625 27.296875 
Q 45.40625 37.203125 41.296875 42.84375 
Q 37.203125 48.484375 30.078125 48.484375 
Q 22.953125 48.484375 18.875 42.84375 
Q 14.796875 37.203125 14.796875 27.296875 
z
" id="DejaVuSans-100"/>
     </defs>
     <g transform="translate(28.178125 78.926406)rotate(-90)scale(0.1 -0.1)">
      <use xlink:href="#DejaVuSans-97"/>
      <use x="61.279297" xlink:href="#DejaVuSans-109"/>
      <use x="158.691406" xlink:href="#DejaVuSans-112"/>
      <use x="222.167969" xlink:href="#DejaVuSans-108"/>
      <use x="249.951172" xlink:href="#DejaVuSans-105"/>
      <use x="277.734375" xlink:href="#DejaVuSans-116"/>
      <use x="316.943359" xlink:href="#DejaVuSans-117"/>
      <use x="380.322266" xlink:href="#DejaVuSans-100"/>
      <use x="443.798828" xlink:href="#DejaVuSans-101"/>
     </g>
    </g>
   </g>
   <g id="line2d_21">
    <path clip-path="url(#p6fc9eff3b9)" d="M 73.909091 53.66 
L 75.107023 38.613682 
L 76.304956 29.314545 
L 77.502888 29.314545 
L 78.700821 38.613682 
L 81.096686 68.706318 
L 82.294618 78.005455 
L 83.492551 78.005455 
L 84.690483 68.706318 
L 87.086348 38.613682 
L 88.284281 29.314545 
L 89.482213 29.314545 
L 90.680146 38.613682 
L 93.076011 68.706318 
L 94.273943 78.005455 
L 95.471876 78.005455 
L 96.669808 68.706318 
L 99.065673 38.613682 
L 100.263606 29.314545 
L 101.461538 29.314545 
L 102.659471 38.613682 
L 105.055336 68.706318 
L 106.253268 78.005455 
L 107.451201 78.005455 
L 108.649133 68.706318 
L 111.044998 38.613682 
L 112.242931 29.314545 
L 113.440863 29.314545 
L 114.638796 38.613682 
L 117.034661 68.706318 
L 118.232593 78.005455 
L 119.430526 78.005455 
L 120.628458 68.706318 
L 123.024324 38.613682 
L 124.222256 29.314545 
L 125.420189 29.314545 
L 126.618121 38.613682 
L 129.013986 68.706318 
L 130.211919 78.005455 
L 131.409851 78.005455 
L 132.607784 68.706318 
L 135.003649 38.613682 
L 136.201581 29.314545 
L 137.399514 29.314545 
L 138.597446 38.613682 
L 140.993311 68.706318 
L 142.191244 78.005455 
L 143.389176 78.005455 
L 144.587109 68.706318 
L 146.982974 38.613682 
L 148.180906 29.314545 
L 149.378839 29.314545 
L 150.576771 38.613682 
L 152.972636 68.706318 
L 154.170569 78.005455 
L 155.368501 78.005455 
L 156.566434 68.706318 
L 158.962299 38.613682 
L 160.160231 29.314545 
L 161.358164 29.314545 
L 162.556096 38.613682 
L 164.951961 68.706318 
L 166.149894 78.005455 
L 167.347826 78.005455 
L 168.545759 68.706318 
L 170.941624 38.613682 
L 172.139556 29.314545 
L 173.337489 29.314545 
L 174.535421 38.613682 
L 176.931286 68.706318 
L 178.129219 78.005455 
L 179.327151 78.005455 
L 180.525084 68.706318 
L 182.920949 38.613682 
L 184.118881 29.314545 
L 185.316814 29.314545 
L 186.514746 38.613682 
L 188.910611 68.706318 
L 190.108544 78.005455 
L 191.306476 78.005455 
L 192.504409 68.706318 
L 193.702341 53.66 
L 432.090909 53.66 
L 432.090909 53.66 
" style="fill:none;stroke:#1f77b4;stroke-linecap:square;stroke-width:1.5;"/>
   </g>
   <g id="patch_3">
    <path d="M 56 80.44 
L 56 26.88 
" style="fill:none;stroke:#000000;stroke-linecap:square;stroke-linejoin:miter;stroke-width:0.8;"/>
   </g>
   <g id="patch_4">
    <path d="M 450 80.44 
L 450 26.88 
" style="fill:none;stroke:#000000;stroke-linecap:square;stroke-linejoin:miter;stroke-width:0.8;"/>
   </g>
   <g id="patch_5">
    <path d="M 56 80.44 
L 450 80.44 
" style="fill:none;stroke:#000000;stroke-linecap:square;stroke-linejoin:miter;stroke-width:0.8;"/>
   </g>
   <g id="patch_6">
    <path d="M 56 26.88 
L 450 26.88 
" style="fill:none;stroke:#000000;stroke-linecap:square;stroke-linejoin:miter;stroke-width:0.8;"/>
   </g>
   <g id="text_13">
    <!-- Simple Pulse -->
    <defs>
     <path d="M 53.515625 70.515625 
L 53.515625 60.890625 
Q 47.90625 63.578125 42.921875 64.890625 
Q 37.9375 66.21875 33.296875 66.21875 
Q 25.25 66.21875 20.875 63.09375 
Q 16.5 59.96875 16.5 54.203125 
Q 16.5 49.359375 19.40625 46.890625 
Q 22.3125 44.4375 30.421875 42.921875 
L 36.375 41.703125 
Q 47.40625 39.59375 52.65625 34.296875 
Q 57.90625 29 57.90625 20.125 
Q 57.90625 9.515625 50.796875 4.046875 
Q 43.703125 -1.421875 29.984375 -1.421875 
Q 24.8125 -1.421875 18.96875 -0.25 
Q 13.140625 0.921875 6.890625 3.21875 
L 6.890625 13.375 
Q 12.890625 10.015625 18.65625 8.296875 
Q 24.421875 6.59375 29.984375 6.59375 
Q 38.421875 6.59375 43.015625 9.90625 
Q 47.609375 13.234375 47.609375 19.390625 
Q 47.609375 24.75 44.3125 27.78125 
Q 41.015625 30.8125 33.5 32.328125 
L 27.484375 33.5 
Q 16.453125 35.6875 11.515625 40.375 
Q 6.59375 45.0625 6.59375 53.421875 
Q 6.59375 63.09375 13.40625 68.65625 
Q 20.21875 74.21875 32.171875 74.21875 
Q 37.3125 74.21875 42.625 73.28125 
Q 47.953125 72.359375 53.515625 70.515625 
z
" id="DejaVuSans-83"/>
     <path d="M 19.671875 64.796875 
L 19.671875 37.40625 
L 32.078125 37.40625 
Q 38.96875 37.40625 42.71875 40.96875 
Q 46.484375 44.53125 46.484375 51.125 
Q 46.484375 57.671875 42.71875 61.234375 
Q 38.96875 64.796875 32.078125 64.796875 
z
M 9.8125 72.90625 
L 32.078125 72.90625 
Q 44.34375 72.90625 50.609375 67.359375 
Q 56.890625 61.8125 56.890625 51.125 
Q 56.890625 40.328125 50.609375 34.8125 
Q 44.34375 29.296875 32.078125 29.296875 
L 19.671875 29.296875 
L 19.671875 0 
L 9.8125 0 
z
" id="DejaVuSans-80"/>
    </defs>
    <g transform="translate(214.70125 20.88)scale(0.12 -0.12)">
     <use xlink:href="#DejaVuSans-83"/>
     <use x="63.476562" xlink:href="#DejaVuSans-105"/>
     <use x="91.259766" xlink:href="#DejaVuSans-109"/>
     <use x="188.671875" xlink:href="#DejaVuSans-112"/>
     <use x="252.148438" xlink:href="#DejaVuSans-108"/>
     <use x="279.931641" xlink:href="#DejaVuSans-101"/>
     <use x="341.455078" xlink:href="#DejaVuSans-32"/>
     <use x="373.242188" xlink:href="#DejaVuSans-80"/>
     <use x="433.529297" xlink:href="#DejaVuSans-117"/>
     <use x="496.908203" xlink:href="#DejaVuSans-108"/>
     <use x="524.691406" xlink:href="#DejaVuSans-115"/>
     <use x="576.791016" xlink:href="#DejaVuSans-101"/>
    </g>
   </g>
  </g>
  <g id="axes_2">
   <g id="patch_7">
    <path d="M 56 192.04 
L 450 192.04 
L 450 138.48 
L 56 138.48 
z
" style="fill:#ffffff;"/>
   </g>
   <g id="matplotlib.axis_3">
    <g id="xtick_8">
     <g id="line2d_22">
      <path clip-path="url(#p0d818cff61)" d="M 73.909091 192.04 
L 73.909091 138.48 
" style="fill:none;stroke:#b0b0b0;stroke-linecap:square;stroke-width:0.8;"/>
     </g>
     <g id="line2d_23">
      <g>
       <use style="stroke:#000000;stroke-width:0.8;" x="73.909091" xlink:href="#m78ca9aaafc" y="192.04"/>
      </g>
     </g>
     <g id="text_14">
      <!-- 0.0 -->
      <g transform="translate(65.957528 206.638437)scale(0.1 -0.1)">
       <use xlink:href="#DejaVuSans-48"/>
       <use x="63.623047" xlink:href="#DejaVuSans-46"/>
       <use x="95.410156" xlink:href="#DejaVuSans-48"/>
      </g>
     </g>
    </g>
    <g id="xtick_9">
     <g id="line2d_24">
      <path clip-path="url(#p0d818cff61)" d="M 118.704216 192.04 
L 118.704216 138.48 
" style="fill:none;stroke:#b0b0b0;stroke-linecap:square;stroke-width:0.8;"/>
     </g>
     <g id="line2d_25">
      <g>
       <use style="stroke:#000000;stroke-width:0.8;" x="118.704216" xlink:href="#m78ca9aaafc" y="192.04"/>
      </g>
     </g>
     <g id="text_15">
      <!-- 2.5 -->
      <g transform="translate(110.752653 206.638437)scale(0.1 -0.1)">
       <use xlink:href="#DejaVuSans-50"/>
       <use x="63.623047" xlink:href="#DejaVuSans-46"/>
       <use x="95.410156" xlink:href="#DejaVuSans-53"/>
      </g>
     </g>
    </g>
    <g id="xtick_10">
     <g id="line2d_26">
      <path clip-path="url(#p0d818cff61)" d="M 163.499341 192.04 
L 163.499341 138.48 
" style="fill:none;stroke:#b0b0b0;stroke-linecap:square;stroke-width:0.8;"/>
     </g>
     <g id="line2d_27">
      <g>
       <use style="stroke:#000000;stroke-width:0.8;" x="163.499341" xlink:href="#m78ca9aaafc" y="192.04"/>
      </g>
     </g>
     <g id="text_16">
      <!-- 5.0 -->
      <g transform="translate(155.547778 206.638437)scale(0.1 -0.1)">
       <use xlink:href="#DejaVuSans-53"/>
       <use x="63.623047" xlink:href="#DejaVuSans-46"/>
       <use x="95.410156" xlink:href="#DejaVuSans-48"/>
      </g>
     </g>
    </g>
    <g id="xtick_11">
     <g id="line2d_28">
      <path clip-path="url(#p0d818cff61)" d="M 208.294465 192.04 
L 208.294465 138.48 
" style="fill:none;stroke:#b0b0b0;stroke-linecap:square;stroke-width:0.8;"/>
     </g>
     <g id="line2d_29">
      <g>
       <use style="stroke:#000000;stroke-width:0.8;" x="208.294465" xlink:href="#m78ca9aaafc" y="192.04"/>
      </g>
     </g>
     <g id="text_17">
      <!-- 7.5 -->
      <defs>
       <path d="M 8.203125 72.90625 
L 55.078125 72.90625 
L 55.078125 68.703125 
L 28.609375 0 
L 18.3125 0 
L 43.21875 64.59375 
L 8.203125 64.59375 
z
" id="DejaVuSans-55"/>
      </defs>
      <g transform="translate(200.342903 206.638437)scale(0.1 -0.1)">
       <use xlink:href="#DejaVuSans-55"/>
       <use x="63.623047" xlink:href="#DejaVuSans-46"/>
       <use x="95.410156" xlink:href="#DejaVuSans-53"/>
      </g>
     </g>
    </g>
    <g id="xtick_12">
     <g id="line2d_30">
      <path clip-path="url(#p0d818cff61)" d="M 253.08959 192.04 
L 253.08959 138.48 
" style="fill:none;stroke:#b0b0b0;stroke-linecap:square;stroke-width:0.8;"/>
     </g>
     <g id="line2d_31">
      <g>
       <use style="stroke:#000000;stroke-width:0.8;" x="253.08959" xlink:href="#m78ca9aaafc" y="192.04"/>
      </g>
     </g>
     <g id="text_18">
      <!-- 10.0 -->
      <g transform="translate(241.956778 206.638437)scale(0.1 -0.1)">
       <use xlink:href="#DejaVuSans-49"/>
       <use x="63.623047" xlink:href="#DejaVuSans-48"/>
       <use x="127.246094" xlink:href="#DejaVuSans-46"/>
       <use x="159.033203" xlink:href="#DejaVuSans-48"/>
      </g>
     </g>
    </g>
    <g id="xtick_13">
     <g id="line2d_32">
      <path clip-path="url(#p0d818cff61)" d="M 297.884715 192.04 
L 297.884715 138.48 
" style="fill:none;stroke:#b0b0b0;stroke-linecap:square;stroke-width:0.8;"/>
     </g>
     <g id="line2d_33">
      <g>
       <use style="stroke:#000000;stroke-width:0.8;" x="297.884715" xlink:href="#m78ca9aaafc" y="192.04"/>
      </g>
     </g>
     <g id="text_19">
      <!-- 12.5 -->
      <g transform="translate(286.751903 206.638437)scale(0.1 -0.1)">
       <use xlink:href="#DejaVuSans-49"/>
       <use x="63.623047" xlink:href="#DejaVuSans-50"/>
       <use x="127.246094" xlink:href="#DejaVuSans-46"/>
       <use x="159.033203" xlink:href="#DejaVuSans-53"/>
      </g>
     </g>
    </g>
    <g id="xtick_14">
     <g id="line2d_34">
      <path clip-path="url(#p0d818cff61)" d="M 342.67984 192.04 
L 342.67984 138.48 
" style="fill:none;stroke:#b0b0b0;stroke-linecap:square;stroke-width:0.8;"/>
     </g>
     <g id="line2d_35">
      <g>
       <use style="stroke:#000000;stroke-width:0.8;" x="342.67984" xlink:href="#m78ca9aaafc" y="192.04"/>
      </g>
     </g>
     <g id="text_20">
      <!-- 15.0 -->
      <g transform="translate(331.547027 206.638437)scale(0.1 -0.1)">
       <use xlink:href="#DejaVuSans-49"/>
       <use x="63.623047" xlink:href="#DejaVuSans-53"/>
       <use x="127.246094" xlink:href="#DejaVuSans-46"/>
       <use x="159.033203" xlink:href="#DejaVuSans-48"/>
      </g>
     </g>
    </g>
    <g id="xtick_15">
     <g id="line2d_36">
      <path clip-path="url(#p0d818cff61)" d="M 387.474965 192.04 
L 387.474965 138.48 
" style="fill:none;stroke:#b0b0b0;stroke-linecap:square;stroke-width:0.8;"/>
     </g>
     <g id="line2d_37">
      <g>
       <use style="stroke:#000000;stroke-width:0.8;" x="387.474965" xlink:href="#m78ca9aaafc" y="192.04"/>
      </g>
     </g>
     <g id="text_21">
      <!-- 17.5 -->
      <g transform="translate(376.342152 206.638437)scale(0.1 -0.1)">
       <use xlink:href="#DejaVuSans-49"/>
       <use x="63.623047" xlink:href="#DejaVuSans-55"/>
       <use x="127.246094" xlink:href="#DejaVuSans-46"/>
       <use x="159.033203" xlink:href="#DejaVuSans-53"/>
      </g>
     </g>
    </g>
    <g id="xtick_16">
     <g id="line2d_38">
      <path clip-path="url(#p0d818cff61)" d="M 432.27009 192.04 
L 432.27009 138.48 
" style="fill:none;stroke:#b0b0b0;stroke-linecap:square;stroke-width:0.8;"/>
     </g>
     <g id="line2d_39">
      <g>
       <use style="stroke:#000000;stroke-width:0.8;" x="432.27009" xlink:href="#m78ca9aaafc" y="192.04"/>
      </g>
     </g>
     <g id="text_22">
      <!-- 20.0 -->
      <g transform="translate(421.137277 206.638437)scale(0.1 -0.1)">
       <use xlink:href="#DejaVuSans-50"/>
       <use x="63.623047" xlink:href="#DejaVuSans-48"/>
       <use x="127.246094" xlink:href="#DejaVuSans-46"/>
       <use x="159.033203" xlink:href="#DejaVuSans-48"/>
      </g>
     </g>
    </g>
   </g>
   <g id="matplotlib.axis_4">
    <g id="ytick_4">
     <g id="line2d_40">
      <path clip-path="url(#p0d818cff61)" d="M 56 189.605455 
L 450 189.605455 
" style="fill:none;stroke:#b0b0b0;stroke-linecap:square;stroke-width:0.8;"/>
     </g>
     <g id="line2d_41">
      <g>
       <use style="stroke:#000000;stroke-width:0.8;" x="56" xlink:href="#m437f5d4a5a" y="189.605455"/>
      </g>
     </g>
     <g id="text_23">
      <!-- 0 -->
      <g transform="translate(42.6375 193.404673)scale(0.1 -0.1)">
       <use xlink:href="#DejaVuSans-48"/>
      </g>
     </g>
    </g>
    <g id="ytick_5">
     <g id="line2d_42">
      <path clip-path="url(#p0d818cff61)" d="M 56 140.927596 
L 450 140.927596 
" style="fill:none;stroke:#b0b0b0;stroke-linecap:square;stroke-width:0.8;"/>
     </g>
     <g id="line2d_43">
      <g>
       <use style="stroke:#000000;stroke-width:0.8;" x="56" xlink:href="#m437f5d4a5a" y="140.927596"/>
      </g>
     </g>
     <g id="text_24">
      <!-- 1 -->
      <g transform="translate(42.6375 144.726815)scale(0.1 -0.1)">
       <use xlink:href="#DejaVuSans-49"/>
      </g>
     </g>
    </g>
    <g id="text_25">
     <!-- amplitude -->
     <g transform="translate(36.557812 190.526406)rotate(-90)scale(0.1 -0.1)">
      <use xlink:href="#DejaVuSans-97"/>
      <use x="61.279297" xlink:href="#DejaVuSans-109"/>
      <use x="158.691406" xlink:href="#DejaVuSans-112"/>
      <use x="222.167969" xlink:href="#DejaVuSans-108"/>
      <use x="249.951172" xlink:href="#DejaVuSans-105"/>
      <use x="277.734375" xlink:href="#DejaVuSans-116"/>
      <use x="316.943359" xlink:href="#DejaVuSans-117"/>
      <use x="380.322266" xlink:href="#DejaVuSans-100"/>
      <use x="443.798828" xlink:href="#DejaVuSans-101"/>
     </g>
    </g>
   </g>
   <g id="line2d_44">
    <path clip-path="url(#p0d818cff61)" d="M 73.909091 189.605455 
L 77.492701 187.843545 
L 79.463686 187.124808 
L 81.076311 186.751083 
L 82.688935 186.603182 
L 84.30156 186.693163 
L 85.914184 187.014393 
L 87.705989 187.61175 
L 89.856155 188.582118 
L 91.827141 189.605455 
L 95.410751 187.817678 
L 97.381736 187.082549 
L 98.994361 186.696921 
L 100.606985 186.540352 
L 102.21961 186.626489 
L 103.832234 186.949938 
L 105.624039 187.557727 
L 107.774205 188.551633 
L 109.745191 189.605455 
L 113.328801 187.751687 
L 115.299786 186.982887 
L 116.912411 186.575779 
L 118.525035 186.406025 
L 119.958479 186.46757 
L 121.571104 186.773128 
L 123.183728 187.307589 
L 125.154714 188.212223 
L 127.842421 189.501647 
L 131.426031 187.550938 
L 133.397017 186.751658 
L 135.009641 186.336787 
L 136.443085 186.181295 
L 137.876529 186.23983 
L 139.309973 186.511581 
L 140.922598 187.054088 
L 142.714403 187.903908 
L 145.22293 189.380712 
L 145.581291 189.605455 
L 149.344081 187.360063 
L 151.135886 186.542853 
L 152.748511 186.048611 
L 154.181955 185.838875 
L 155.615399 185.863518 
L 157.048843 186.125406 
L 158.482287 186.612685 
L 160.094911 187.397254 
L 162.065897 188.614299 
L 163.499341 189.605455 
L 167.262131 187.0617 
L 169.053936 186.12129 
L 170.48738 185.592918 
L 171.920824 185.30583 
L 173.175088 185.271949 
L 174.429351 185.447837 
L 175.683615 185.829957 
L 177.117059 186.501554 
L 178.729683 187.513518 
L 180.879849 189.162046 
L 181.417391 189.605455 
L 185.359361 186.449597 
L 186.971986 185.432304 
L 188.40543 184.774939 
L 189.659693 184.431706 
L 190.913957 184.329812 
L 192.16822 184.481998 
L 193.422484 184.889466 
L 194.676747 185.541465 
L 196.110191 186.556529 
L 197.722816 187.97974 
L 199.33544 189.605455 
L 203.814953 185.059517 
L 205.427577 183.808795 
L 206.681841 183.10552 
L 207.756924 182.728614 
L 208.832007 182.583545 
L 209.90709 182.685237 
L 210.982173 183.040969 
L 212.057256 183.649855 
L 213.132339 184.502553 
L 214.386602 185.781264 
L 215.820046 187.563696 
L 217.25349 189.605455 
L 222.987266 181.191982 
L 224.24153 179.855621 
L 225.316613 179.005352 
L 226.212515 178.54229 
L 227.108418 178.32893 
L 227.82514 178.352326 
L 228.541862 178.558011 
L 229.437764 179.082062 
L 230.333667 179.911364 
L 231.229569 181.050371 
L 232.304652 182.824476 
L 233.379735 185.031519 
L 234.633999 188.122701 
L 235.17154 189.605455 
L 236.784165 184.657721 
L 238.75515 177.808071 
L 245.74319 152.655088 
L 247.176634 148.602635 
L 248.430897 145.666804 
L 249.50598 143.669378 
L 250.401883 142.402457 
L 251.297785 141.516117 
L 252.014507 141.089357 
L 252.731229 140.9175 
L 253.447951 141.001638 
L 254.164673 141.340448 
L 254.881395 141.930207 
L 255.777298 143.010837 
L 256.6732 144.457092 
L 257.748283 146.643801 
L 259.002547 149.756376 
L 260.435991 153.942487 
L 262.227796 159.888975 
L 265.453045 171.565044 
L 268.319933 181.619324 
L 270.111738 187.153232 
L 271.00764 189.605455 
L 272.441084 186.194155 
L 273.695348 183.773375 
L 274.770431 182.140095 
L 275.845514 180.921153 
L 276.741416 180.219106 
L 277.637319 179.794415 
L 278.533221 179.635108 
L 279.429124 179.725193 
L 280.325026 180.045079 
L 281.400109 180.700106 
L 282.654373 181.781958 
L 284.087817 183.342823 
L 286.237983 186.077059 
L 288.92569 189.605455 
L 290.896676 187.319521 
L 292.33012 185.961638 
L 293.584383 185.037891 
L 294.838647 184.387608 
L 295.91373 184.057102 
L 296.988813 183.936035 
L 298.063896 184.017431 
L 299.318159 184.35044 
L 300.572423 184.910755 
L 302.185047 185.902522 
L 304.335213 187.542103 
L 306.84374 189.605455 
L 309.173087 187.863253 
L 310.964892 186.803832 
L 312.398336 186.19552 
L 313.83178 185.828094 
L 315.265224 185.711178 
L 316.698668 185.839103 
L 318.132112 186.191973 
L 319.744736 186.817232 
L 321.894902 187.923241 
L 324.76179 189.605455 
L 327.449497 188.153151 
L 329.420483 187.34161 
L 331.033107 186.903291 
L 332.645732 186.695028 
L 334.258356 186.722349 
L 335.870981 186.972613 
L 337.662786 187.476335 
L 339.992132 188.389385 
L 342.85902 189.524393 
L 345.905089 188.274735 
L 347.876074 187.690087 
L 349.667879 187.373517 
L 351.459684 187.28432 
L 353.251489 187.421519 
L 355.222475 187.806675 
L 357.551821 188.502909 
L 360.77707 189.539787 
L 364.002319 188.470124 
L 366.152485 187.971933 
L 368.123471 187.730757 
L 370.094456 187.716513 
L 372.065442 187.92198 
L 374.394788 188.402752 
L 377.620037 189.3296 
L 378.69512 189.550623 
L 382.27873 188.570444 
L 384.608077 188.156534 
L 386.758243 187.99619 
L 388.908409 188.063736 
L 391.237755 188.372813 
L 394.104643 189.000803 
L 396.61317 189.558622 
L 400.375961 188.683841 
L 402.884488 188.323222 
L 405.213834 188.214814 
L 407.543181 188.335021 
L 410.051708 188.687877 
L 413.635318 189.441916 
L 414.53122 189.56474 
L 418.652372 188.74443 
L 421.340079 188.444544 
L 423.848606 188.398593 
L 426.357133 188.580046 
L 429.403202 189.043364 
L 432.090909 189.569462 
L 432.090909 189.569462 
" style="fill:none;stroke:#1f77b4;stroke-linecap:square;stroke-width:1.5;"/>
   </g>
   <g id="patch_8">
    <path d="M 56 192.04 
L 56 138.48 
" style="fill:none;stroke:#000000;stroke-linecap:square;stroke-linejoin:miter;stroke-width:0.8;"/>
   </g>
   <g id="patch_9">
    <path d="M 450 192.04 
L 450 138.48 
" style="fill:none;stroke:#000000;stroke-linecap:square;stroke-linejoin:miter;stroke-width:0.8;"/>
   </g>
   <g id="patch_10">
    <path d="M 56 192.04 
L 450 192.04 
" style="fill:none;stroke:#000000;stroke-linecap:square;stroke-linejoin:miter;stroke-width:0.8;"/>
   </g>
   <g id="patch_11">
    <path d="M 56 138.48 
L 450 138.48 
" style="fill:none;stroke:#000000;stroke-linecap:square;stroke-linejoin:miter;stroke-width:0.8;"/>
   </g>
   <g id="text_26">
    <!-- Fourier Transform of the Simple Pulse -->
    <defs>
     <path d="M 9.8125 72.90625 
L 51.703125 72.90625 
L 51.703125 64.59375 
L 19.671875 64.59375 
L 19.671875 43.109375 
L 48.578125 43.109375 
L 48.578125 34.8125 
L 19.671875 34.8125 
L 19.671875 0 
L 9.8125 0 
z
" id="DejaVuSans-70"/>
     <path d="M 30.609375 48.390625 
Q 23.390625 48.390625 19.1875 42.75 
Q 14.984375 37.109375 14.984375 27.296875 
Q 14.984375 17.484375 19.15625 11.84375 
Q 23.34375 6.203125 30.609375 6.203125 
Q 37.796875 6.203125 41.984375 11.859375 
Q 46.1875 17.53125 46.1875 27.296875 
Q 46.1875 37.015625 41.984375 42.703125 
Q 37.796875 48.390625 30.609375 48.390625 
z
M 30.609375 56 
Q 42.328125 56 49.015625 48.375 
Q 55.71875 40.765625 55.71875 27.296875 
Q 55.71875 13.875 49.015625 6.21875 
Q 42.328125 -1.421875 30.609375 -1.421875 
Q 18.84375 -1.421875 12.171875 6.21875 
Q 5.515625 13.875 5.515625 27.296875 
Q 5.515625 40.765625 12.171875 48.375 
Q 18.84375 56 30.609375 56 
z
" id="DejaVuSans-111"/>
     <path d="M 41.109375 46.296875 
Q 39.59375 47.171875 37.8125 47.578125 
Q 36.03125 48 33.890625 48 
Q 26.265625 48 22.1875 43.046875 
Q 18.109375 38.09375 18.109375 28.8125 
L 18.109375 0 
L 9.078125 0 
L 9.078125 54.6875 
L 18.109375 54.6875 
L 18.109375 46.1875 
Q 20.953125 51.171875 25.484375 53.578125 
Q 30.03125 56 36.53125 56 
Q 37.453125 56 38.578125 55.875 
Q 39.703125 55.765625 41.0625 55.515625 
z
" id="DejaVuSans-114"/>
     <path d="M -0.296875 72.90625 
L 61.375 72.90625 
L 61.375 64.59375 
L 35.5 64.59375 
L 35.5 0 
L 25.59375 0 
L 25.59375 64.59375 
L -0.296875 64.59375 
z
" id="DejaVuSans-84"/>
     <path d="M 54.890625 33.015625 
L 54.890625 0 
L 45.90625 0 
L 45.90625 32.71875 
Q 45.90625 40.484375 42.875 44.328125 
Q 39.84375 48.1875 33.796875 48.1875 
Q 26.515625 48.1875 22.3125 43.546875 
Q 18.109375 38.921875 18.109375 30.90625 
L 18.109375 0 
L 9.078125 0 
L 9.078125 54.6875 
L 18.109375 54.6875 
L 18.109375 46.1875 
Q 21.34375 51.125 25.703125 53.5625 
Q 30.078125 56 35.796875 56 
Q 45.21875 56 50.046875 50.171875 
Q 54.890625 44.34375 54.890625 33.015625 
z
" id="DejaVuSans-110"/>
     <path d="M 37.109375 75.984375 
L 37.109375 68.5 
L 28.515625 68.5 
Q 23.6875 68.5 21.796875 66.546875 
Q 19.921875 64.59375 19.921875 59.515625 
L 19.921875 54.6875 
L 34.71875 54.6875 
L 34.71875 47.703125 
L 19.921875 47.703125 
L 19.921875 0 
L 10.890625 0 
L 10.890625 47.703125 
L 2.296875 47.703125 
L 2.296875 54.6875 
L 10.890625 54.6875 
L 10.890625 58.5 
Q 10.890625 67.625 15.140625 71.796875 
Q 19.390625 75.984375 28.609375 75.984375 
z
" id="DejaVuSans-102"/>
     <path d="M 54.890625 33.015625 
L 54.890625 0 
L 45.90625 0 
L 45.90625 32.71875 
Q 45.90625 40.484375 42.875 44.328125 
Q 39.84375 48.1875 33.796875 48.1875 
Q 26.515625 48.1875 22.3125 43.546875 
Q 18.109375 38.921875 18.109375 30.90625 
L 18.109375 0 
L 9.078125 0 
L 9.078125 75.984375 
L 18.109375 75.984375 
L 18.109375 46.1875 
Q 21.34375 51.125 25.703125 53.5625 
Q 30.078125 56 35.796875 56 
Q 45.21875 56 50.046875 50.171875 
Q 54.890625 44.34375 54.890625 33.015625 
z
" id="DejaVuSans-104"/>
    </defs>
    <g transform="translate(139.413437 132.48)scale(0.12 -0.12)">
     <use xlink:href="#DejaVuSans-70"/>
     <use x="57.472656" xlink:href="#DejaVuSans-111"/>
     <use x="118.654297" xlink:href="#DejaVuSans-117"/>
     <use x="182.033203" xlink:href="#DejaVuSans-114"/>
     <use x="223.146484" xlink:href="#DejaVuSans-105"/>
     <use x="250.929688" xlink:href="#DejaVuSans-101"/>
     <use x="312.453125" xlink:href="#DejaVuSans-114"/>
     <use x="353.566406" xlink:href="#DejaVuSans-32"/>
     <use x="385.353516" xlink:href="#DejaVuSans-84"/>
     <use x="446.21875" xlink:href="#DejaVuSans-114"/>
     <use x="487.332031" xlink:href="#DejaVuSans-97"/>
     <use x="548.611328" xlink:href="#DejaVuSans-110"/>
     <use x="611.990234" xlink:href="#DejaVuSans-115"/>
     <use x="664.089844" xlink:href="#DejaVuSans-102"/>
     <use x="699.294922" xlink:href="#DejaVuSans-111"/>
     <use x="760.476562" xlink:href="#DejaVuSans-114"/>
     <use x="801.574219" xlink:href="#DejaVuSans-109"/>
     <use x="898.986328" xlink:href="#DejaVuSans-32"/>
     <use x="930.773438" xlink:href="#DejaVuSans-111"/>
     <use x="991.955078" xlink:href="#DejaVuSans-102"/>
     <use x="1027.160156" xlink:href="#DejaVuSans-32"/>
     <use x="1058.947266" xlink:href="#DejaVuSans-116"/>
     <use x="1098.15625" xlink:href="#DejaVuSans-104"/>
     <use x="1161.535156" xlink:href="#DejaVuSans-101"/>
     <use x="1223.058594" xlink:href="#DejaVuSans-32"/>
     <use x="1254.845703" xlink:href="#DejaVuSans-83"/>
     <use x="1318.322266" xlink:href="#DejaVuSans-105"/>
     <use x="1346.105469" xlink:href="#DejaVuSans-109"/>
     <use x="1443.517578" xlink:href="#DejaVuSans-112"/>
     <use x="1506.994141" xlink:href="#DejaVuSans-108"/>
     <use x="1534.777344" xlink:href="#DejaVuSans-101"/>
     <use x="1596.300781" xlink:href="#DejaVuSans-32"/>
     <use x="1628.087891" xlink:href="#DejaVuSans-80"/>
     <use x="1688.375" xlink:href="#DejaVuSans-117"/>
     <use x="1751.753906" xlink:href="#DejaVuSans-108"/>
     <use x="1779.537109" xlink:href="#DejaVuSans-115"/>
     <use x="1831.636719" xlink:href="#DejaVuSans-101"/>
    </g>
   </g>
  </g>
  <g id="axes_3">
   <g id="patch_12">
    <path d="M 56 303.64 
L 450 303.64 
L 450 250.08 
L 56 250.08 
z
" style="fill:#ffffff;"/>
   </g>
   <g id="matplotlib.axis_5">
    <g id="xtick_17">
     <g id="line2d_45">
      <path clip-path="url(#p77906f123b)" d="M 73.909091 303.64 
L 73.909091 250.08 
" style="fill:none;stroke:#b0b0b0;stroke-linecap:square;stroke-width:0.8;"/>
     </g>
     <g id="line2d_46">
      <g>
       <use style="stroke:#000000;stroke-width:0.8;" x="73.909091" xlink:href="#m78ca9aaafc" y="303.64"/>
      </g>
     </g>
     <g id="text_27">
      <!-- 0 -->
      <g transform="translate(70.727841 318.238437)scale(0.1 -0.1)">
       <use xlink:href="#DejaVuSans-48"/>
      </g>
     </g>
    </g>
    <g id="xtick_18">
     <g id="line2d_47">
      <path clip-path="url(#p77906f123b)" d="M 145.545455 303.64 
L 145.545455 250.08 
" style="fill:none;stroke:#b0b0b0;stroke-linecap:square;stroke-width:0.8;"/>
     </g>
     <g id="line2d_48">
      <g>
       <use style="stroke:#000000;stroke-width:0.8;" x="145.545455" xlink:href="#m78ca9aaafc" y="303.64"/>
      </g>
     </g>
     <g id="text_28">
      <!-- 10 -->
      <g transform="translate(139.182955 318.238437)scale(0.1 -0.1)">
       <use xlink:href="#DejaVuSans-49"/>
       <use x="63.623047" xlink:href="#DejaVuSans-48"/>
      </g>
     </g>
    </g>
    <g id="xtick_19">
     <g id="line2d_49">
      <path clip-path="url(#p77906f123b)" d="M 217.181818 303.64 
L 217.181818 250.08 
" style="fill:none;stroke:#b0b0b0;stroke-linecap:square;stroke-width:0.8;"/>
     </g>
     <g id="line2d_50">
      <g>
       <use style="stroke:#000000;stroke-width:0.8;" x="217.181818" xlink:href="#m78ca9aaafc" y="303.64"/>
      </g>
     </g>
     <g id="text_29">
      <!-- 20 -->
      <g transform="translate(210.819318 318.238437)scale(0.1 -0.1)">
       <use xlink:href="#DejaVuSans-50"/>
       <use x="63.623047" xlink:href="#DejaVuSans-48"/>
      </g>
     </g>
    </g>
    <g id="xtick_20">
     <g id="line2d_51">
      <path clip-path="url(#p77906f123b)" d="M 288.818182 303.64 
L 288.818182 250.08 
" style="fill:none;stroke:#b0b0b0;stroke-linecap:square;stroke-width:0.8;"/>
     </g>
     <g id="line2d_52">
      <g>
       <use style="stroke:#000000;stroke-width:0.8;" x="288.818182" xlink:href="#m78ca9aaafc" y="303.64"/>
      </g>
     </g>
     <g id="text_30">
      <!-- 30 -->
      <g transform="translate(282.455682 318.238437)scale(0.1 -0.1)">
       <use xlink:href="#DejaVuSans-51"/>
       <use x="63.623047" xlink:href="#DejaVuSans-48"/>
      </g>
     </g>
    </g>
    <g id="xtick_21">
     <g id="line2d_53">
      <path clip-path="url(#p77906f123b)" d="M 360.454545 303.64 
L 360.454545 250.08 
" style="fill:none;stroke:#b0b0b0;stroke-linecap:square;stroke-width:0.8;"/>
     </g>
     <g id="line2d_54">
      <g>
       <use style="stroke:#000000;stroke-width:0.8;" x="360.454545" xlink:href="#m78ca9aaafc" y="303.64"/>
      </g>
     </g>
     <g id="text_31">
      <!-- 40 -->
      <defs>
       <path d="M 37.796875 64.3125 
L 12.890625 25.390625 
L 37.796875 25.390625 
z
M 35.203125 72.90625 
L 47.609375 72.90625 
L 47.609375 25.390625 
L 58.015625 25.390625 
L 58.015625 17.1875 
L 47.609375 17.1875 
L 47.609375 0 
L 37.796875 0 
L 37.796875 17.1875 
L 4.890625 17.1875 
L 4.890625 26.703125 
z
" id="DejaVuSans-52"/>
      </defs>
      <g transform="translate(354.092045 318.238437)scale(0.1 -0.1)">
       <use xlink:href="#DejaVuSans-52"/>
       <use x="63.623047" xlink:href="#DejaVuSans-48"/>
      </g>
     </g>
    </g>
    <g id="xtick_22">
     <g id="line2d_55">
      <path clip-path="url(#p77906f123b)" d="M 432.090909 303.64 
L 432.090909 250.08 
" style="fill:none;stroke:#b0b0b0;stroke-linecap:square;stroke-width:0.8;"/>
     </g>
     <g id="line2d_56">
      <g>
       <use style="stroke:#000000;stroke-width:0.8;" x="432.090909" xlink:href="#m78ca9aaafc" y="303.64"/>
      </g>
     </g>
     <g id="text_32">
      <!-- 50 -->
      <g transform="translate(425.728409 318.238437)scale(0.1 -0.1)">
       <use xlink:href="#DejaVuSans-53"/>
       <use x="63.623047" xlink:href="#DejaVuSans-48"/>
      </g>
     </g>
    </g>
    <g id="text_33">
     <!-- frequency [MHz] -->
     <defs>
      <path d="M 14.796875 27.296875 
Q 14.796875 17.390625 18.875 11.75 
Q 22.953125 6.109375 30.078125 6.109375 
Q 37.203125 6.109375 41.296875 11.75 
Q 45.40625 17.390625 45.40625 27.296875 
Q 45.40625 37.203125 41.296875 42.84375 
Q 37.203125 48.484375 30.078125 48.484375 
Q 22.953125 48.484375 18.875 42.84375 
Q 14.796875 37.203125 14.796875 27.296875 
z
M 45.40625 8.203125 
Q 42.578125 3.328125 38.25 0.953125 
Q 33.9375 -1.421875 27.875 -1.421875 
Q 17.96875 -1.421875 11.734375 6.484375 
Q 5.515625 14.40625 5.515625 27.296875 
Q 5.515625 40.1875 11.734375 48.09375 
Q 17.96875 56 27.875 56 
Q 33.9375 56 38.25 53.625 
Q 42.578125 51.265625 45.40625 46.390625 
L 45.40625 54.6875 
L 54.390625 54.6875 
L 54.390625 -20.796875 
L 45.40625 -20.796875 
z
" id="DejaVuSans-113"/>
      <path d="M 48.78125 52.59375 
L 48.78125 44.1875 
Q 44.96875 46.296875 41.140625 47.34375 
Q 37.3125 48.390625 33.40625 48.390625 
Q 24.65625 48.390625 19.8125 42.84375 
Q 14.984375 37.3125 14.984375 27.296875 
Q 14.984375 17.28125 19.8125 11.734375 
Q 24.65625 6.203125 33.40625 6.203125 
Q 37.3125 6.203125 41.140625 7.25 
Q 44.96875 8.296875 48.78125 10.40625 
L 48.78125 2.09375 
Q 45.015625 0.34375 40.984375 -0.53125 
Q 36.96875 -1.421875 32.421875 -1.421875 
Q 20.0625 -1.421875 12.78125 6.34375 
Q 5.515625 14.109375 5.515625 27.296875 
Q 5.515625 40.671875 12.859375 48.328125 
Q 20.21875 56 33.015625 56 
Q 37.15625 56 41.109375 55.140625 
Q 45.0625 54.296875 48.78125 52.59375 
z
" id="DejaVuSans-99"/>
      <path d="M 32.171875 -5.078125 
Q 28.375 -14.84375 24.75 -17.8125 
Q 21.140625 -20.796875 15.09375 -20.796875 
L 7.90625 -20.796875 
L 7.90625 -13.28125 
L 13.1875 -13.28125 
Q 16.890625 -13.28125 18.9375 -11.515625 
Q 21 -9.765625 23.484375 -3.21875 
L 25.09375 0.875 
L 2.984375 54.6875 
L 12.5 54.6875 
L 29.59375 11.921875 
L 46.6875 54.6875 
L 56.203125 54.6875 
z
" id="DejaVuSans-121"/>
      <path d="M 9.8125 72.90625 
L 24.515625 72.90625 
L 43.109375 23.296875 
L 61.8125 72.90625 
L 76.515625 72.90625 
L 76.515625 0 
L 66.890625 0 
L 66.890625 64.015625 
L 48.09375 14.015625 
L 38.1875 14.015625 
L 19.390625 64.015625 
L 19.390625 0 
L 9.8125 0 
z
" id="DejaVuSans-77"/>
      <path d="M 9.8125 72.90625 
L 19.671875 72.90625 
L 19.671875 43.015625 
L 55.515625 43.015625 
L 55.515625 72.90625 
L 65.375 72.90625 
L 65.375 0 
L 55.515625 0 
L 55.515625 34.71875 
L 19.671875 34.71875 
L 19.671875 0 
L 9.8125 0 
z
" id="DejaVuSans-72"/>
      <path d="M 5.515625 54.6875 
L 48.1875 54.6875 
L 48.1875 46.484375 
L 14.40625 7.171875 
L 48.1875 7.171875 
L 48.1875 0 
L 4.296875 0 
L 4.296875 8.203125 
L 38.09375 47.515625 
L 5.515625 47.515625 
z
" id="DejaVuSans-122"/>
     </defs>
     <g transform="translate(211.623437 331.916562)scale(0.1 -0.1)">
      <use xlink:href="#DejaVuSans-102"/>
      <use x="35.205078" xlink:href="#DejaVuSans-114"/>
      <use x="76.287109" xlink:href="#DejaVuSans-101"/>
      <use x="137.810547" xlink:href="#DejaVuSans-113"/>
      <use x="201.287109" xlink:href="#DejaVuSans-117"/>
      <use x="264.666016" xlink:href="#DejaVuSans-101"/>
      <use x="326.189453" xlink:href="#DejaVuSans-110"/>
      <use x="389.568359" xlink:href="#DejaVuSans-99"/>
      <use x="444.548828" xlink:href="#DejaVuSans-121"/>
      <use x="503.728516" xlink:href="#DejaVuSans-32"/>
      <use x="535.515625" xlink:href="#DejaVuSans-91"/>
      <use x="574.529297" xlink:href="#DejaVuSans-77"/>
      <use x="660.808594" xlink:href="#DejaVuSans-72"/>
      <use x="736.003906" xlink:href="#DejaVuSans-122"/>
      <use x="788.494141" xlink:href="#DejaVuSans-93"/>
     </g>
    </g>
   </g>
   <g id="matplotlib.axis_6">
    <g id="ytick_6">
     <g id="line2d_57">
      <path clip-path="url(#p77906f123b)" d="M 56 296.233497 
L 450 296.233497 
" style="fill:none;stroke:#b0b0b0;stroke-linecap:square;stroke-width:0.8;"/>
     </g>
     <g id="line2d_58">
      <g>
       <use style="stroke:#000000;stroke-width:0.8;" x="56" xlink:href="#m437f5d4a5a" y="296.233497"/>
      </g>
     </g>
     <g id="text_34">
      <!-- −2.5 -->
      <g transform="translate(24.717188 300.032716)scale(0.1 -0.1)">
       <use xlink:href="#DejaVuSans-8722"/>
       <use x="83.789062" xlink:href="#DejaVuSans-50"/>
       <use x="147.412109" xlink:href="#DejaVuSans-46"/>
       <use x="179.199219" xlink:href="#DejaVuSans-53"/>
      </g>
     </g>
    </g>
    <g id="ytick_7">
     <g id="line2d_59">
      <path clip-path="url(#p77906f123b)" d="M 56 276.86 
L 450 276.86 
" style="fill:none;stroke:#b0b0b0;stroke-linecap:square;stroke-width:0.8;"/>
     </g>
     <g id="line2d_60">
      <g>
       <use style="stroke:#000000;stroke-width:0.8;" x="56" xlink:href="#m437f5d4a5a" y="276.86"/>
      </g>
     </g>
     <g id="text_35">
      <!-- 0.0 -->
      <g transform="translate(33.096875 280.659219)scale(0.1 -0.1)">
       <use xlink:href="#DejaVuSans-48"/>
       <use x="63.623047" xlink:href="#DejaVuSans-46"/>
       <use x="95.410156" xlink:href="#DejaVuSans-48"/>
      </g>
     </g>
    </g>
    <g id="ytick_8">
     <g id="line2d_61">
      <path clip-path="url(#p77906f123b)" d="M 56 257.486503 
L 450 257.486503 
" style="fill:none;stroke:#b0b0b0;stroke-linecap:square;stroke-width:0.8;"/>
     </g>
     <g id="line2d_62">
      <g>
       <use style="stroke:#000000;stroke-width:0.8;" x="56" xlink:href="#m437f5d4a5a" y="257.486503"/>
      </g>
     </g>
     <g id="text_36">
      <!-- 2.5 -->
      <g transform="translate(33.096875 261.285722)scale(0.1 -0.1)">
       <use xlink:href="#DejaVuSans-50"/>
       <use x="63.623047" xlink:href="#DejaVuSans-46"/>
       <use x="95.410156" xlink:href="#DejaVuSans-53"/>
      </g>
     </g>
    </g>
    <g id="text_37">
     <!-- phase [rad/s] -->
     <defs>
      <path d="M 25.390625 72.90625 
L 33.6875 72.90625 
L 8.296875 -9.28125 
L 0 -9.28125 
z
" id="DejaVuSans-47"/>
     </defs>
     <g transform="translate(18.6375 310.021719)rotate(-90)scale(0.1 -0.1)">
      <use xlink:href="#DejaVuSans-112"/>
      <use x="63.476562" xlink:href="#DejaVuSans-104"/>
      <use x="126.855469" xlink:href="#DejaVuSans-97"/>
      <use x="188.134766" xlink:href="#DejaVuSans-115"/>
      <use x="240.234375" xlink:href="#DejaVuSans-101"/>
      <use x="301.757812" xlink:href="#DejaVuSans-32"/>
      <use x="333.544922" xlink:href="#DejaVuSans-91"/>
      <use x="372.558594" xlink:href="#DejaVuSans-114"/>
      <use x="413.671875" xlink:href="#DejaVuSans-97"/>
      <use x="474.951172" xlink:href="#DejaVuSans-100"/>
      <use x="538.427734" xlink:href="#DejaVuSans-47"/>
      <use x="572.119141" xlink:href="#DejaVuSans-115"/>
      <use x="624.21875" xlink:href="#DejaVuSans-93"/>
     </g>
    </g>
   </g>
   <g id="line2d_63">
    <path clip-path="url(#p77906f123b)" d="M 73.909091 252.514545 
L 74.052364 265.174182 
L 81.001091 288.789273 
L 81.144364 264.930727 
L 88.164727 288.789273 
L 88.236364 257.059151 
L 88.308 264.930727 
L 95.328364 288.789273 
L 95.4 294.584503 
L 95.471636 264.930727 
L 95.543273 265.174182 
L 102.492 288.789273 
L 102.635273 264.930727 
L 109.655636 288.789273 
L 109.727273 295.338985 
L 109.798909 264.930727 
L 109.870545 265.174182 
L 116.819273 288.789273 
L 116.890909 287.129935 
L 116.962545 264.930727 
L 117.034182 265.174182 
L 123.982909 288.789273 
L 124.126182 264.930727 
L 124.197818 265.174182 
L 131.146545 288.789273 
L 131.218182 283.220035 
L 131.289818 264.930727 
L 131.361455 265.174182 
L 138.310182 288.789273 
L 138.381818 264.284699 
L 138.453455 264.930727 
L 149.055636 300.962 
L 149.127273 252.514545 
L 149.198909 252.758 
L 152.637455 264.443818 
L 152.709091 298.379453 
L 152.780727 289.276182 
L 156.219273 300.962 
L 156.290909 252.514545 
L 156.362545 252.758 
L 159.801091 264.443818 
L 159.944364 289.276182 
L 163.454545 301.205455 
L 163.526182 252.758 
L 163.597818 253.001455 
L 166.964727 264.443818 
L 167.036364 261.209406 
L 167.179636 289.519636 
L 170.618182 301.205455 
L 170.689818 252.758 
L 170.761455 253.001455 
L 174.128364 264.443818 
L 174.2 255.544104 
L 174.343273 289.519636 
L 177.781818 301.205455 
L 177.853455 252.758 
L 177.925091 253.001455 
L 181.292 264.443818 
L 181.363636 301.025791 
L 181.435273 289.276182 
L 184.873818 300.962 
L 184.945455 252.514545 
L 185.017091 252.758 
L 188.455636 264.443818 
L 188.598909 289.276182 
L 192.109091 301.205455 
L 192.180727 252.758 
L 192.252364 253.001455 
L 195.619273 264.443818 
L 195.690909 257.361898 
L 195.834182 289.519636 
L 199.201091 300.962 
L 199.272727 252.514545 
L 199.344364 252.758 
L 202.782909 264.443818 
L 202.854545 296.364175 
L 202.926182 289.276182 
L 206.364727 300.962 
L 206.436364 252.514545 
L 206.508 252.758 
L 209.946545 264.443818 
L 210.089818 289.276182 
L 213.528364 300.962 
L 213.6 252.514545 
L 213.671636 252.758 
L 217.110182 264.443818 
L 217.253455 289.276182 
L 220.692 300.962 
L 220.763636 252.514545 
L 220.835273 252.758 
L 224.273818 264.443818 
L 224.345455 255.818828 
L 224.488727 289.519636 
L 227.855636 300.962 
L 227.927273 252.514545 
L 227.998909 252.758 
L 231.437455 264.443818 
L 231.509091 289.97968 
L 231.580727 289.276182 
L 235.019273 300.962 
L 235.090909 252.514545 
L 235.162545 252.758 
L 238.601091 264.443818 
L 238.744364 289.276182 
L 242.182909 300.962 
L 242.254545 252.514545 
L 242.326182 252.758 
L 245.764727 264.443818 
L 246.051273 289.763091 
L 249.346545 300.962 
L 249.418182 252.514545 
L 249.489818 252.758 
L 252.928364 264.443818 
L 253 290.906484 
L 253.071636 289.276182 
L 256.510182 300.962 
L 256.581818 252.514545 
L 256.653455 252.758 
L 260.092 264.443818 
L 260.235273 289.276182 
L 263.673818 300.962 
L 263.745455 252.514545 
L 263.817091 252.758 
L 267.255636 264.443818 
L 267.470545 289.519636 
L 270.909091 301.205455 
L 270.980727 252.758 
L 271.052364 253.001455 
L 274.419273 264.443818 
L 274.490909 259.460418 
L 274.634182 289.519636 
L 278.001091 300.962 
L 278.072727 252.514545 
L 278.144364 252.758 
L 281.582909 264.443818 
L 281.654545 265.677646 
L 281.797818 289.519636 
L 285.236364 301.205455 
L 285.308 252.758 
L 285.379636 253.001455 
L 288.746545 264.443818 
L 288.818182 270.663005 
L 288.961455 289.519636 
L 292.4 301.205455 
L 292.471636 252.758 
L 292.543273 253.001455 
L 295.910182 264.443818 
L 295.981818 252.52691 
L 296.125091 289.519636 
L 299.492 300.962 
L 299.563636 252.514545 
L 299.635273 252.758 
L 303.073818 264.443818 
L 303.217091 289.276182 
L 306.655636 300.962 
L 306.727273 252.514545 
L 306.798909 252.758 
L 310.237455 264.443818 
L 310.524 289.763091 
L 313.890909 301.205455 
L 313.962545 252.758 
L 314.034182 253.001455 
L 317.401091 264.443818 
L 317.472727 258.424421 
L 317.616 289.519636 
L 320.982909 300.962 
L 321.054545 252.514545 
L 321.126182 252.758 
L 324.564727 264.443818 
L 324.636364 297.796939 
L 324.708 289.276182 
L 328.146545 300.962 
L 328.218182 252.514545 
L 328.289818 252.758 
L 331.728364 264.443818 
L 331.871636 289.276182 
L 335.310182 300.962 
L 335.381818 252.514545 
L 335.453455 252.758 
L 338.892 264.443818 
L 339.178545 289.763091 
L 342.545455 301.205455 
L 342.617091 252.758 
L 342.688727 253.001455 
L 346.055636 264.443818 
L 346.127273 301.024277 
L 346.198909 289.276182 
L 349.637455 300.962 
L 349.709091 252.514545 
L 349.780727 252.758 
L 353.219273 264.443818 
L 353.434182 289.519636 
L 356.872727 301.205455 
L 356.944364 252.758 
L 357.016 253.001455 
L 360.382909 264.443818 
L 360.454545 252.514545 
L 360.597818 289.519636 
L 363.964727 300.962 
L 364.036364 252.514545 
L 364.108 252.758 
L 367.546545 264.443818 
L 367.618182 265.747012 
L 367.761455 289.519636 
L 371.2 301.205455 
L 371.271636 252.758 
L 371.343273 253.001455 
L 374.710182 264.443818 
L 374.781818 292.616483 
L 374.853455 289.276182 
L 378.292 300.962 
L 378.363636 252.514545 
L 378.435273 252.758 
L 381.873818 264.443818 
L 382.017091 289.276182 
L 385.455636 300.962 
L 385.527273 252.514545 
L 385.598909 252.758 
L 389.037455 264.443818 
L 389.252364 289.519636 
L 392.690909 301.205455 
L 392.762545 252.758 
L 392.834182 253.001455 
L 396.201091 264.443818 
L 396.416 289.519636 
L 399.854545 301.205455 
L 399.926182 252.758 
L 399.997818 253.001455 
L 403.364727 264.443818 
L 403.436364 257.842498 
L 403.579636 289.519636 
L 406.946545 300.962 
L 407.018182 252.514545 
L 407.089818 252.758 
L 410.528364 264.443818 
L 410.743273 289.519636 
L 414.181818 301.205455 
L 414.253455 252.758 
L 414.325091 253.001455 
L 417.763636 264.611698 
L 417.906909 289.519636 
L 421.345455 301.205455 
L 421.417091 252.758 
L 421.488727 253.001455 
L 424.855636 264.443818 
L 424.927273 301.084607 
L 424.998909 289.276182 
L 428.437455 300.962 
L 428.509091 252.514545 
L 428.580727 252.758 
L 432.019273 264.443818 
L 432.090909 276.86 
L 432.090909 276.86 
" style="fill:none;stroke:#1f77b4;stroke-linecap:square;stroke-width:1.5;"/>
   </g>
   <g id="patch_13">
    <path d="M 56 303.64 
L 56 250.08 
" style="fill:none;stroke:#000000;stroke-linecap:square;stroke-linejoin:miter;stroke-width:0.8;"/>
   </g>
   <g id="patch_14">
    <path d="M 450 303.64 
L 450 250.08 
" style="fill:none;stroke:#000000;stroke-linecap:square;stroke-linejoin:miter;stroke-width:0.8;"/>
   </g>
   <g id="patch_15">
    <path d="M 56 303.64 
L 450 303.64 
" style="fill:none;stroke:#000000;stroke-linecap:square;stroke-linejoin:miter;stroke-width:0.8;"/>
   </g>
   <g id="patch_16">
    <path d="M 56 250.08 
L 450 250.08 
" style="fill:none;stroke:#000000;stroke-linecap:square;stroke-linejoin:miter;stroke-width:0.8;"/>
   </g>
  </g>
 </g>
 <defs>
  <clipPath id="p6fc9eff3b9">
   <rect height="53.56" width="394" x="56" y="26.88"/>
  </clipPath>
  <clipPath id="p0d818cff61">
   <rect height="53.56" width="394" x="56" y="138.48"/>
  </clipPath>
  <clipPath id="p77906f123b">
   <rect height="53.56" width="394" x="56" y="250.08"/>
  </clipPath>
 </defs>
</svg>
